<svg xmlns="http://www.w3.org/2000/svg" xmlns:xlink="http://www.w3.org/1999/xlink" viewBox="0 0 992.13 1007.18"><defs><style>.cls-1{isolation:isolate;}.cls-2{fill:#606060;opacity:0.12;mix-blend-mode:multiply;}.cls-3{fill:#3a3029;}.cls-4{fill:#514943;}.cls-5{fill:#eac5b0;}.cls-6{fill:#3ababa;}.cls-7{fill:#ebb044;}.cls-8{fill:#ff8608;}.cls-9{fill:#dd9976;}.cls-10{fill:#1a3151;}.cls-11{fill:#d1e7f5;}.cls-12{fill:#145566;}.cls-13{fill:#9ea6ad;}.cls-14{fill:#b5d6ca;}.cls-15{fill:#fffff1;}.cls-16{opacity:0.26;}.cls-17{fill:none;}.cls-18{fill:#fff;}</style></defs><g class="cls-1"><g id="Calque_2" data-name="Calque 2"><g id="shadow"><path class="cls-2" d="M845.65,835.18H124.43c-22.81,0-41.48,13.06-41.48,29h0c0,11,9,20.7,22,25.6H41.48c-22.82,0-41.48,13.05-41.48,29H0c0,16,18.66,29,41.48,29H63.61c-6.18,5.07-9.93,11.63-9.93,18.77v11.61c0,16,18.66,29,41.47,29H805.63c22.82,0,41.48-13,41.48-29V966.57c0-16-18.66-29-41.48-29l-48.3.65A21.28,21.28,0,0,0,771,932.1c7-7.16,7.34-18.05,3.9-27.07-2.22-5.84-5.79-10.48-14.64-12.22l85.4.39c22.81,0,41.48-13.05,41.48-29h0C887.13,848.24,868.46,835.18,845.65,835.18Z"/></g><g id="object"><polygon class="cls-3" points="338.63 922.06 338.63 933.7 361.92 945.35 373.57 933.7 361.92 922.06 338.63 922.06"/><polygon class="cls-4" points="554.29 927.57 554.29 936.88 536.57 946.18 527.7 936.88 536.57 927.57 554.29 927.57"/><polygon class="cls-5" points="455 395.18 457 410.18 450.64 419.96 440.33 418.44 439 401.18 453 394.18 455 395.18"/><polygon class="cls-6" points="344 383.18 417 479.18 431 416.18 457 421.18 442 516.18 416.78 533.7 350 489.18 344 383.18"/><polygon class="cls-7" points="609 398.18 632 415.18 723 541.18 719 571.18 678 571.18 587 449.18 609 398.18"/><polygon class="cls-3" points="211.97 921.74 209.5 933.08 229.09 949.23 242.6 940.3 234.04 926.55 214.45 910.4 211.97 921.74"/><polygon class="cls-8" points="280.49 573.03 258.63 623.44 256.57 765.27 211.62 917.84 232.52 927.11 324.25 749.96 334.69 693.85 338.83 575.68 280.49 573.03"/><polygon class="cls-8" points="386.33 584.33 388.05 732.97 360.04 924.62 338.5 924.62 324.9 747.78 295.43 570.94 386.33 584.33"/><path class="cls-6" d="M343.92,383.05l-57.21-2.12S252.48,411,234.79,489c-18,79.46,3.33,193.85,3.33,193.85s153.49-20.46,178.66-23.62l-38.4-156.89Z"/><path class="cls-9" d="M323.42,388.9l-20.05-2a100.8,100.8,0,0,1,1.07-16c-5.57-1.95-12-4.88-13-10.7a16.7,16.7,0,0,1,.32-5.54l3.9-22.72c.45-2.62.93-5.32,2.35-7.57,2.49-3.94,7.34-5.67,11.93-6.47,11.73-2.05,24.51.47,33.61,8.14a18.16,18.16,0,0,1,5.69,7.48c1.65,4.59.42,9.67-.81,14.39L345,361c-1.31,5-3.2,10.72-8,12.6-2.56,1-5.59.72-7.91,2.2C325,378.44,325.54,384.53,323.42,388.9Z"/><path class="cls-10" d="M388.69,313.19A64.29,64.29,0,0,0,387.05,298c-1.78-8.14-11.38-11.79-19.69-12.37-17.94-1.25-35.26-9.38-52.79-3.1-10,3.59-23.47,4.45-32.54,9.51a26.71,26.71,0,0,0-9.16,9.05,40.34,40.34,0,0,0-.05,42.65,56.94,56.94,0,0,0,6.29,7.9c4.73,5.13,10.4,11.45,16.9,13.34.15-5.81-5.17-24.16-.71-28.93,7.08-7.58,23.12-5,31.92-3.11,9.6,2,18.16,8.8,27.68,10.24,6.85,1,15.58-2.33,21.4-5.88C385.41,331.76,388.46,322.57,388.69,313.19Z"/><path class="cls-11" d="M328.14,390.12l60.15,240.59,4.93,31.55-74.94,9.86s3-115.21,2-130.57-12.1-48.58-13.8-84.38c-1-20.7-7.56-57.9-3-70Z"/><path class="cls-10" d="M537.62,312.49S527,321.18,532,353.18s2,53,2,53,11,5,19,0,11-6,8-19-9-75-9-75Z"/><polygon class="cls-4" points="634.21 921.25 635.14 930.48 618.42 941.98 608.66 933.89 616.55 923.53 633.28 912.03 634.21 921.25"/><polygon class="cls-9" points="633.79 639.32 636.63 667.32 611.54 763.54 634.84 918.16 617.69 924.08 572.48 773.13 565.31 729.21 565.57 636.24 633.79 639.32"/><polygon class="cls-9" points="501.93 670.53 538 929.62 554.39 929.62 557.34 763.54 587.17 646.98 501.93 670.53"/><path class="cls-7" d="M546.43,407.1c.33-.57.68-1.12,1-1.67,12.87-19.51,42-7.24,61.1-7.24,5.22,55.07,19.66,107.55,29,161.63Q652.4,646,671,731.39c.7,3.23-49.18,1.6-53.88,1.68-48,.81-110.81.65-157.11-13.89,29.55-79.46,40.34-164.95,63.61-246.48,5.13-18,10.69-35.7,17.25-53.06A81.37,81.37,0,0,1,546.43,407.1Z"/><path class="cls-10" d="M564,323.31a32.36,32.36,0,0,0-23,27.13,28.54,28.54,0,0,1,6.26-46.17,33,33,0,0,1,15.87,19.25Z"/><path class="cls-9" d="M539.27,339.61c6.28-33.19,47.68-27.46,59.55-.58,6.76,15.28,5.18,45.15-13.83,50.15-.29,2.94-.67,8.45-2.91,10.41-2.43,2.13-10.08.1-13.08-.59a4.54,4.54,0,0,1-2.3-1c-.76-.75-.89-2.78-.9-5a27.8,27.8,0,0,1-6.75-1.33c-9.63-3.17-16.6-12.1-19.49-21.83S537.38,349.58,539.27,339.61Z"/><path class="cls-10" d="M548,304.18s-4,18,19,23,37.94,23,34,42-21,33-12,38,42,0,42,0,20-67-7-96S558,281.18,548,304.18Z"/><polygon class="cls-7" points="551.74 400.54 535.9 410.68 462 500.18 464 525.18 498.35 525.18 561 426.18 551.74 400.54"/><path class="cls-12" d="M732.24,487.37c-70.13-11.84-90.9-54.93-93.54-61.12,0,0,.08-.48-.16-.37-.1-.25-.37.16-.37.16-6.18,2.66-50.94,19.54-109.89-20.24,0,0-56.34,112.15-37.67,174.57,19.95,66.66,47.75,95.52,48,95.46.11.2,40.32-1.13,100.56-36.06C695.51,607.09,732.24,487.37,732.24,487.37Z"/><path class="cls-13" d="M718,495.53c-63.54-11-82.59-49.56-85-55.11,0,0,.07-.42-.15-.33-.09-.22-.33.14-.33.14-5.58,2.34-46,17.15-99.58-18.71,0,0-50.33,99.78-33.06,155.6,18.45,59.63,42.65,88.31,42.85,88.25.1.18,37.62-3.52,91.94-34.35C685.49,602.18,718,495.53,718,495.53Z"/><path class="cls-11" d="M628.42,450.41s.25-.37.35-.14c.23-.1.15.34.15.34,2.5,5.7,21.74,44.66,85.23,57,3.93-10.65,6-17.47,6-17.47-63.54-11-82.6-49.57-85-55.11,0,0,.08-.43-.14-.33-.1-.22-.33.14-.33.14-5.59,2.34-46,17.14-99.59-18.71,0,0-3.21,6.36-7.72,16.77C581.87,467.77,622.69,452.82,628.42,450.41Z"/><path class="cls-14" d="M689.17,517.32c-48.08-8.12-67.16-40.83-69-45.07,0,0,.06-.33-.1-.26-.07-.16-.26.11-.26.11-4.24,1.83-40.31,12.41-80.73-14.86,0,0-33.24,77.88-20.43,120.67,13.68,45.71,32.73,65.49,32.89,65.45.08.13,27.64-.78,68.94-24.72C659.14,596.23,689.17,517.32,689.17,517.32Z"/><polygon class="cls-6" points="287 381.18 260 396.18 171 528.18 179 562.18 228 556.18 287 381.18"/><polygon class="cls-13" points="426.64 571.78 237.52 620.75 203.09 487.76 284.03 410.68 392.21 438.79 426.64 571.78"/><path class="cls-10" d="M438.7,422.08l-52-13.45-84-21.76c-6.77-1.76-13.52-3.7-20.33-5.27a11.72,11.72,0,0,0-11.27,3.15c-2,1.92-3.94,3.91-5.91,5.87l-57,56.61c-15.41,15.3-31.09,30.38-46.24,45.94l-.77.76a10.09,10.09,0,0,0,14.23,14.32L212.93,471l59.46-59.09,9.62-9.56,47.11,12.2,84.7,21.93,19.39,5a10.09,10.09,0,0,0,5.49-19.42Z"/><rect class="cls-15" x="251.17" y="513.55" width="47.63" height="91.76" transform="translate(-131.45 86.79) rotate(-14.52)"/><rect class="cls-15" x="320.03" y="497.38" width="25.91" height="22.1" transform="translate(-116.81 99.69) rotate(-14.52)"/><rect class="cls-15" x="352.86" y="488.88" width="25.91" height="22.1" transform="translate(-113.63 107.66) rotate(-14.52)"/><rect class="cls-15" x="327.61" y="526.65" width="25.91" height="22.1" transform="translate(-123.91 102.53) rotate(-14.52)"/><rect class="cls-15" x="360.44" y="518.15" width="25.91" height="22.1" transform="translate(-120.73 110.49) rotate(-14.52)"/><polygon class="cls-6" points="171 528.18 204 518.18 314 577.18 305.5 600.18 179 562.18 171 528.18"/><polygon class="cls-5" points="312.52 581.19 332 581.18 347.54 599.91 330 606.18 306.39 597.77 312.52 581.19"/><polygon class="cls-7" points="723 541.18 686 529.18 601 538.18 602 564.18 719 577.18 723 541.18"/><polygon class="cls-9" points="600.97 541.43 581 541.18 561 553.18 569 564.18 589 562.18 601.7 556.43 600.97 541.43"/><path class="cls-10" d="M470.05,20v-9.8L465.54.92A3.12,3.12,0,0,0,461,1l-3.78,9.14V20c-3.56,0-9.35,2.79-9.35,6.23a6.33,6.33,0,0,0,6.44,6.22h2.91v332.1c0,18.73-9.9,34.32-24.13,34-11-.26-20.65-9.64-22.27-24.94a6.74,6.74,0,0,0-6.77-6h-.26a6.66,6.66,0,0,0-6.76,7.35c2.82,21.76,20.09,37.33,36.48,37.33,12.81,0,23.31-5.94,29.43-16.64,7.58-13.25,7.09-27.82,7.09-42.36V32.41h2a6.34,6.34,0,0,0,6.44-6.22C478.49,22.75,473.61,20,470.05,20Z"/><g class="cls-16"><polygon class="cls-10" points="470.05 206.12 457.11 192.67 457.11 170.44 470.05 170.44 470.05 206.12"/></g><path class="cls-17" d="M561.37,237.18l1.51.74,2.17-.74h-3.68Z"/><path class="cls-18" d="M368.49,235.25,370.8,221A334.13,334.13,0,0,1,426.17,84l36-51.77A233.3,233.3,0,0,0,240.59,235.62,226.73,226.73,0,0,1,305,226.71,231.65,231.65,0,0,1,368.49,235.25Z"/><path class="cls-18" d="M556.58,206.67l6.16,30.51h2.31c20-6.62,43.77-10.47,69.33-10.47s49.35,3.82,69.62,10.41A233.48,233.48,0,0,0,472.19,32c-2.5,0-5,0-7.48.13l28.73,42C528.66,117.46,544.83,161.34,556.58,206.67Z"/><path class="cls-8" d="M370.8,221l-2.31,14.22.62.18c24.24-10.78,57.47-17,94.16-17,38.64,0,73.51,6.85,98.1,18.71h1.37l-6.16-30.51c-11.75-45.33-27.92-89.21-63.14-132.53l-28.73-42-2.57.1L426.17,84A334.13,334.13,0,0,0,370.8,221Z"/><path class="cls-18" d="M368.49,235.25l-.08.49.7-.31Z"/><polygon class="cls-7" points="462 500.18 494.34 497.64 554 564.18 541 577.18 464 525.18 462 500.18"/><polygon class="cls-9" points="551.25 566.93 564 577.18 565 596.18 554 596.18 544.55 573.63 551.25 566.93"/><polygon class="cls-5" points="433 416.18 426.64 404.91 427 387.18 433 389.18 435 398.18 446 408.18 442.76 418.44 433 416.18"/><polygon class="cls-5" points="433.19 401.65 434.64 390.03 446.47 381.24 454.58 387.52 452.69 397.18 433.19 401.65"/><image width="164" height="60" transform="translate(678 55.18) scale(1.92)" xlink:href="../../../Documents/Gna%20assurance/logo-2.png"/></g></g></g></svg>