<?xml version="1.0" encoding="utf-8"?>
<!-- Generator: Adobe Illustrator 24.2.0, SVG Export Plug-In . SVG Version: 6.00 Build 0)  -->
<svg version="1.1" id="Calque_1" xmlns="http://www.w3.org/2000/svg" xmlns:xlink="http://www.w3.org/1999/xlink" x="0px" y="0px"
	 viewBox="0 0 257.8 238.9" style="enable-background:new 0 0 257.8 238.9;" xml:space="preserve">
<style type="text/css">
	.st0{fill:#DB191A;}
</style>
<g id="Calque_2_1_">
	<g id="Calque_1-2">
		<path class="st0" d="M124.7,41.6c-14.4,0-26.2,11.7-26.2,26.2s11.7,26.2,26.2,26.2s26.2-11.7,26.2-26.2
			C150.8,53.3,139.1,41.6,124.7,41.6z M122,87.7c-8.9-1.2-15.9-8.1-17.2-17H122V87.7z M122,64.7h-17.2c1.3-8.9,8.3-15.8,17.2-17
			L122,64.7z M128,47.8c8.6,1.4,15.3,8.2,16.7,16.9H128V47.8z M128,87.6V70.8h16.7C143.3,79.4,136.6,86.2,128,87.6L128,87.6z"/>
		<path class="st0" d="M92.1,134.3l7.3,21.7l7.3-21.8c0.4-1.1,0.7-1.9,0.9-2.4c0.2-0.5,0.5-0.9,0.9-1.2c0.5-0.4,1.2-0.6,1.8-0.5
			c0.5,0,1.1,0.1,1.6,0.4c0.5,0.3,0.9,0.7,1.1,1.1c0.3,0.4,0.4,0.9,0.4,1.4c0,0.3-0.1,0.7-0.1,1c-0.1,0.4-0.2,0.7-0.3,1.1
			c-0.1,0.4-0.3,0.7-0.4,1.1l-7.8,21.1c-0.3,0.8-0.6,1.6-0.8,2.3c-0.3,0.7-0.6,1.3-1,1.9c-0.8,1.2-2.2,2-3.7,1.9
			c-0.8,0-1.5-0.2-2.2-0.5c-0.6-0.3-1.1-0.8-1.5-1.4c-0.4-0.6-0.7-1.3-1-1.9c-0.3-0.7-0.6-1.5-0.8-2.3l-7.7-21
			c-0.1-0.4-0.3-0.8-0.4-1.1c-0.1-0.4-0.3-0.8-0.4-1.2c-0.1-0.4-0.1-0.7-0.1-1.1c0-0.8,0.3-1.5,0.9-2.1c0.6-0.6,1.4-1,2.3-0.9
			c0.9-0.1,1.8,0.3,2.4,1C91.3,132,91.8,133.1,92.1,134.3z"/>
		<path class="st0" d="M139.7,135.6H125v7.9h13.6c0.8-0.1,1.6,0.2,2.2,0.7c0.5,0.5,0.8,1.1,0.7,1.8c0,0.7-0.2,1.3-0.7,1.8
			c-0.6,0.5-1.4,0.8-2.2,0.7H125v9.2h15.3c0.8-0.1,1.7,0.2,2.3,0.7c1,1,1.1,2.7,0,3.7c0,0,0,0,0,0c-0.7,0.5-1.5,0.8-2.3,0.7h-17.8
			c-1.1,0.1-2.2-0.2-3.1-0.9c-0.7-0.9-1-2-0.9-3.1v-24.3c0-0.8,0.1-1.6,0.4-2.3c0.3-0.6,0.7-1,1.3-1.3c0.7-0.3,1.5-0.4,2.3-0.4h17.3
			c0.8-0.1,1.7,0.2,2.3,0.7c0.5,0.5,0.8,1.1,0.8,1.8c0,0.7-0.3,1.4-0.8,1.8C141.4,135.4,140.5,135.6,139.7,135.6z"/>
		<path class="st0" d="M157.1,133.9l12.6,19.1v-19.3c-0.1-1,0.2-2,0.8-2.8c0.5-0.6,1.3-1,2.2-0.9c0.8,0,1.7,0.3,2.2,0.9
			c0.6,0.8,0.9,1.8,0.8,2.8v25.4c0,2.8-1.2,4.2-3.5,4.2c-0.5,0-1.1-0.1-1.6-0.2c-0.5-0.2-0.9-0.5-1.3-0.8c-0.4-0.4-0.8-0.8-1.1-1.3
			l-1.1-1.5l-12.3-18.8v18.9c0.1,1-0.2,2-0.9,2.8c-0.6,0.6-1.4,1-2.2,0.9c-0.9,0-1.7-0.3-2.2-1c-0.6-0.8-0.9-1.8-0.8-2.8v-24.9
			c0-0.8,0.1-1.7,0.4-2.5c0.3-0.7,0.8-1.2,1.4-1.6c0.6-0.4,1.3-0.6,2.1-0.6c0.5,0,1,0.1,1.5,0.3c0.4,0.2,0.8,0.4,1.1,0.8
			c0.4,0.4,0.7,0.8,1,1.3C156.4,132.8,156.7,133.4,157.1,133.9z"/>
		<path class="st0" d="M203.8,135.9h-7.1v23.5c0.1,1.1-0.2,2.1-0.9,3c-0.6,0.7-1.5,1-2.3,1c-0.9,0-1.8-0.3-2.4-1
			c-0.7-0.8-1-1.9-0.9-3v-23.5H183c-0.9,0.1-1.8-0.2-2.5-0.7c-1.1-1.1-1.1-2.8-0.1-3.9c0,0,0,0,0.1-0.1c0.7-0.5,1.6-0.8,2.5-0.7
			h20.8c0.9-0.1,1.8,0.2,2.5,0.7c0.6,0.5,0.9,1.2,0.8,2c0,0.7-0.3,1.5-0.8,1.9C205.6,135.8,204.7,136,203.8,135.9z"/>
		<path class="st0" d="M232.3,135.6h-14.7v7.9h13.6c0.8-0.1,1.6,0.2,2.2,0.7c0.5,0.5,0.8,1.1,0.7,1.8c0,0.7-0.2,1.3-0.7,1.8
			c-0.6,0.5-1.4,0.8-2.2,0.7h-13.6v9.2h15.2c0.8-0.1,1.7,0.2,2.3,0.7c1,1,1,2.7,0,3.8c-0.7,0.5-1.5,0.8-2.3,0.7h-17.8
			c-1.1,0.1-2.2-0.2-3.1-0.9c-0.7-0.9-1-2-0.9-3.1v-24.3c0-0.8,0.1-1.6,0.4-2.3c0.3-0.6,0.7-1,1.3-1.3c0.7-0.3,1.5-0.4,2.3-0.4h17.3
			c0.8-0.1,1.7,0.2,2.3,0.7c0.5,0.5,0.8,1.1,0.8,1.8c0,0.7-0.2,1.4-0.8,1.8C234,135.4,233.2,135.6,232.3,135.6z"/>
		<path class="st0" d="M257.8,115.8c-0.1-5.8-3.4-9.8-9.1-10.7c-1.8-0.2-3.6-0.3-5.5-0.3c-19.5,0-39,0-58.5,0c-7.5,0-7.5,0-7.9-7.7
			c0-0.3,0-0.7,0-1c-0.8-7.4-6.2-12.9-13.3-13.3c-6.5-0.4-12.7,4.7-14.1,11.7c-0.4,2.3-0.6,4.6-0.5,6.9c0,2.3-1.1,3.3-3.4,3.3
			c-1.3,0-2.7,0-4,0c-20,0-40,0.1-60,0c-9.5,0-13.9,5-13.7,13.7c0.3,19.2,0.1,38.3,0.1,57.5c0,1.2,0,2.3,0.1,3.5
			c0.6,6.2,4.6,10,10.7,10.3c2.2,0.1,4.3,0,6.5,0c4.5,0.1,4.6,0.2,4.7,4.4c0.1,6,0.1,12,0,18c-0.1,4.1-0.2,4.3-4.2,4.3
			c-14.2,0.1-28.3,0.1-42.5,0c-4,0-4.1-0.3-4.3-4.3c0-0.7,0-1.3,0-2c0-39.5,0.1-79-0.1-118.5c0-4.4,1.3-7,5-9.3
			c25.8-16.9,51.4-33.9,77-51.1c3.4-2.3,5.6-1.9,8.8,0.2c24.9,16.7,49.9,33.3,75,49.6c3.2,2,5.5,4.1,6.6,6.9v8.5
			c0,2.4,2,4.4,4.4,4.4s4.4-2,4.4-4.4v-4.2c0.5-0.3,1.2,0.1,2.6,1c2.8,1.8,5.5,3.9,8.4,5.4c6.1,3.2,12.7,1.6,16.4-3.6
			s3.3-11.6-1.1-15.9c-1.6-1.5-3.3-2.8-5.2-3.9C229,67.4,217,59.5,205.1,51.6c-24.9-16.5-49.7-33-74.5-49.6c-4-2.7-7.3-2.7-11.4,0
			C99.4,15.3,79.5,28.4,59.6,41.5c-0.8,0.5-1.7,1.1-2.5,1.7c-1.6,1.2-2.4,2.8-1.4,4.8c1.2,2.2,3.1,2.4,5.2,1.5
			c1.3-0.7,2.6-1.4,3.8-2.3C83.5,34.8,102.3,22.4,121,9.9c2.7-1.8,4.7-2,7.6-0.1C164.8,33.9,201,58,237.2,82c1,0.6,1.9,1.3,2.8,2.1
			c1.8,1.9,2.1,4.7,0.7,6.9c-1.4,1.8-3.7,2.3-6.3,1c-1.6-0.9-3.2-1.8-4.7-2.9c-33.1-21.9-66.1-43.8-99.1-65.8c-4-2.7-7.2-3-11.3-0.1
			C111,29,102.4,34.4,93.9,40C68.5,56.8,43.1,73.7,17.6,90.5c-4.3,2.9-7.3,2.8-9.1-0.2c-1.7-2.7-0.6-5.3,3.5-8.1
			c8.8-5.8,17.5-11.5,26.3-17.3c1.3-0.8,2.4-1.7,3.6-2.7c1.5-1.3,2.2-3,0.8-4.8c-1.1-1.6-3.2-2.1-4.9-1.2c-1.2,0.6-2.3,1.3-3.4,2.1
			c-7.5,4.9-15,9.9-22.4,14.9c-2.6,1.6-5,3.3-7.4,5.2c-5,3.9-6.1,10.9-2.6,16.2c3.2,5,10.3,7.6,15.8,4.7c2.5-1.3,4.8-2.9,7.3-4.3
			c1.5-0.9,3.2-1.6,4.7-2.4c0.4,1.7,0.6,3.5,0.8,5.2c0,37.7,0,75.3,0,113c0,0.8-0.1,1.7,0,2.5c0.2,2.6-1.2,3.5-3.6,3.5
			c-3.7-0.1-7.3-0.1-11,0.1c-5.5,0.3-10,4.6-10.4,10.2c-0.3,5.8,3,10.4,8.8,11.6c2.1,0.4,4.3,0.5,6.5,0.4c34.7,0,69.3,0,104,0
			c34.8,0,69.7,0,104.5,0c2.5,0,5-0.2,7.4-0.9c4.7-1.4,8.2-6.7,7.7-11.1c-0.5-5.5-5-9.9-10.5-10.2c-3.2-0.2-6.3,0-9.5-0.1
			c-5.4-0.1-5.5-0.2-5.5-5.7c0-4.2,0-8.3-0.1-12.5c-0.1-2-1.8-3.5-3.8-3.4c-1.8,0.1-3.3,1.6-3.4,3.4c-0.1,1.2-0.1,2.3-0.1,3.5
			c0,3.5,0.1,7,0,10.5s-0.5,4.1-4.1,4.1c-9,0.1-18,0-27,0.1c-2.9,0-3.8-1.2-3.7-3.9c0.1-6.3,0.1-12.7,0-19c0-2.7,0.9-4.1,3.8-3.9
			c1.2,0.1,2.3,0,3.5,0c20.2,0,40.3,0,60.5,0c10,0,13.4-3.4,13.4-13.6c0-13.2,0-26.3,0-39.5C257.8,129.8,257.8,122.8,257.8,115.8z
			 M180.3,224c16.8-0.1,33.5,0,50.3,0c0.7,0,1.3,0,2,0.2c2.1,0.5,3.9,1.5,3.6,4c-0.2,2.3-2.1,2.8-4.1,2.8h-25.9l0,0
			c-8.5,0-16.9,0-25.4,0c-2.1,0-4-0.1-4.1-3S177.1,224,180.3,224z M157.4,94.7c0.6-2.7,3.6-4.1,6.3-3.7c2.5,0.4,4.5,2.4,4.8,5
			c0.1,0.8,0.1,1.7,0.1,2.5c0.1,6.4,0.1,6.4-6.1,6.3c-1.2,0.1-2.3,0.1-3.5-0.1c-0.8-0.2-2-1.1-2.1-1.7
			C156.8,100.3,156.9,97.5,157.4,94.7z M145.1,230.8c-3.3,0.1-6.7,0-10,0H20.8c-1.5,0.1-3,0.1-4.4-0.3c-1-0.4-2.4-1.6-2.4-2.5
			c0.1-1.4,0.8-2.6,1.9-3.5c0.9-0.7,2.5-0.6,3.8-0.6c41.5,0,82.9,0,124.3,0c2.1,0,4.6-0.6,4.7,2.9
			C148.8,229.8,148.2,230.7,145.1,230.8L145.1,230.8z M144.9,216.7c-7.3-0.1-14.6,0-21.9,0c-7,0-14,0.1-21,0c-4-0.1-4.2-0.3-4.3-4.3
			c-0.1-6.1-0.1-12.3,0-18.5c0.1-3.7,0.3-4,4-4c14.3-0.1,28.6-0.1,42.9,0c3.8,0,4,0.3,4,4c0.1,6.3-0.1,12.6,0.1,19
			C148.8,215.7,147.6,216.7,144.9,216.7L144.9,216.7z M168.6,197.5c0.1,9.5,0.1,19,0,28.5c0,4.6-0.2,4.8-4.7,4.9
			c-7.1,0.2-7.1,0.2-7.1-6.9c0-4.5,0-9,0-13.5l0,0c0-5.7,0.1-11.3,0-17c0-2.5,0.9-3.6,3.5-3.6C170.1,189.9,168.6,189.5,168.6,197.5z
			 M249.7,176.1c0,5.6-0.1,5.7-5.5,5.7c-54.3,0-108.6,0-162.9,0c-5.5,0-5.6-0.1-5.6-5.6c0-19.1,0-38.3,0-57.5c0-5.6,0.3-5.9,6-5.9
			c27,0,54,0,81,0h79.4c1.3,0,2.7,0,4,0c2.5,0,3.6,1.3,3.6,3.7c0,0.8,0,1.7,0,2.5C249.7,138.2,249.7,157.2,249.7,176.1z"/>
	</g>
</g>
</svg>
