<?xml version="1.0" encoding="utf-8"?>
<!-- Generator: Adobe Illustrator 24.2.0, SVG Export Plug-In . SVG Version: 6.00 Build 0)  -->
<svg version="1.1" id="Calque_1" xmlns="http://www.w3.org/2000/svg" xmlns:xlink="http://www.w3.org/1999/xlink" x="0px" y="0px"
	 viewBox="0 0 257.8 238.9" style="enable-background:new 0 0 257.8 238.9;" xml:space="preserve">
<style type="text/css">
	.st0{fill:#DB191A;}
</style>
<g>
	<g>
		<path class="st0" d="M141.1,103.5h-10.8V57h74.6l2.5,5.9l-16.9,16.9c-1.5,1.5-2.4,3.4-2.6,5.6l-0.6,7.1l-11.3-11.3
			c-4.6-4.6-9.6-7-14.6-7c-7.7,0-13.8,5.7-16.4,15.3L141.1,103.5z M136.9,63.6v30.2l1.6-6.1c3.4-12.6,11.9-20.1,22.8-20.1
			c6.8,0,13.4,3.1,19.3,8.9l2.4,2.4c0.7-1.4,1.7-2.6,2.8-3.8l11.6-11.6H136.9z"/>
	</g>
	<g>
		<path class="st0" d="M126.4,103.5H43.1V57h83.3V103.5z M49.7,96.9h70.1V63.6H49.7V96.9z"/>
	</g>
	<g>
		<path class="st0" d="M127.4,154H87.2v-46.5H140L127.4,154z M93.8,147.4h28.5l9-33.3H93.8V147.4z"/>
	</g>
	<g>
		<path class="st0" d="M126.4,204.5H43.1V158h83.1l-0.6,3.8c-0.6,3.7-0.4,7.2,0.7,10.2l0.2,1.1V204.5z M49.7,197.9h70.1v-24.4
			c-0.9-2.8-1.3-5.8-1.1-9h-69V197.9z"/>
	</g>
	<g>
		<path class="st0" d="M83.3,154H0v-46.5h83.3V154z M6.6,147.4h70.1v-33.3H6.6V147.4z"/>
	</g>
	<g>
		<path class="st0" d="M257.8,154h-26.7l1.6-4.4c1.5-5.8-0.8-12.5-6.6-18.2l-18.7-18.7l5.2-5.2h45.3V154z M239.7,147.4h11.5v-33.3
			h-33.1l12.6,12.6C237,133,240.1,140.3,239.7,147.4z"/>
	</g>
	<g>
		<path class="st0" d="M213.6,204.5h-83.3v-25.3l4.5,1.7c4.1,1.6,8.8,1.6,14,0.2l64.9-17.6V204.5z M136.9,197.9H207v-25.7
			l-56.5,15.3c-4.8,1.3-9.3,1.6-13.6,0.8V197.9z"/>
	</g>
	<g>
		<path class="st0" d="M205.6,116.2l-17,17c-1,1-2.4,1.5-3.7,1.5c-1.4,0-2.7-0.5-3.7-1.5c-0.6-0.6-1-1.4-1.3-2.3
			c0.5,0.1,1,0.3,1.5,0.3c1.4,0,2.7-0.5,3.7-1.5l27.5-27.5c2.1-2.1,2.1-5.4,0-7.5l-8.4-8.4l13.7-13.7c0.4,0.1,0.8,0.1,1.2,0.1
			c2.2,0,4.5-0.9,6.2-2.6L246,49.4c3.4-3.4,3.4-9,0-12.4c-3.4-3.4-9-3.4-12.4,0l-20.6,20.6c-2,2-2.8,4.8-2.5,7.4L193,82.5
			c-2.1,2.1-2.1,5.4,0,7.5l8.4,8.4l-6.8,6.8l-21.4-21.4c-10-10-21.1-7-24.7,6.6l-18.7,69.1c-3.7,13.6,4.4,21.7,18,18l69.1-18.7
			c13.6-3.7,16.6-14.8,6.6-24.7L205.6,116.2z"/>
	</g>
</g>
</svg>
