<?xml version="1.0" encoding="utf-8"?>
<!-- Generator: Adobe Illustrator 24.2.0, SVG Export Plug-In . SVG Version: 6.00 Build 0)  -->
<svg version="1.1" id="Mode_Isolation" xmlns="http://www.w3.org/2000/svg" xmlns:xlink="http://www.w3.org/1999/xlink" x="0px"
	 y="0px" viewBox="0 0 32.9 26" style="enable-background:new 0 0 32.9 26;" xml:space="preserve">
<style type="text/css">
	.st0{fill:#DB191A;}
</style>
<path class="st0" d="M1.4,20.5c0.2,0.6,0.7,1,1.3,1.3l4,1.7c0.1,0,0.1,0,0.2,0c0.2,0,0.4-0.1,0.5-0.3c0.1-0.3,0-0.5-0.3-0.6l-4-1.7
	c-0.3-0.1-0.6-0.4-0.7-0.7c-0.1-0.3-0.1-0.7,0-1l0,0c0.3-0.6,1-1,1.7-0.7l7.5,2.6c0.7,0.2,1.4,0.2,2.1,0l6.6-2.3
	c0.9-0.3,1.5-1.4,1.2-2.3c-0.1-0.6-0.6-1-1.1-1.3c-0.4-0.2-0.9-0.2-1.4-0.1L13.2,17c-0.5,0.2-1.1-0.1-1.3-0.6
	c-0.1-0.3-0.1-0.6,0-0.8c0.1-0.3,0.3-0.5,0.6-0.6l9-3.4c0.1,0,0.1,0,0.2-0.1c1.5-0.5,3.2-0.3,4.5,0.6l4.8,3.2
	c0.2,0.1,0.5,0.1,0.7-0.1c0.1-0.2,0.1-0.5-0.1-0.7l-4.8-3.2c-1.6-1.1-3.6-1.4-5.4-0.7c-0.1,0-0.2,0.1-0.2,0.1l-1.7,0.6V8.6l1.4,0.9
	c0.2,0.1,0.5,0.1,0.7-0.1c0.1-0.2,0.1-0.5-0.1-0.7l-8.1-5.4c-0.2-0.1-0.4-0.1-0.6,0l-1.4,0.9V3c0-0.3-0.2-0.5-0.5-0.5h-3
	C7.5,2.5,7.3,2.7,7.3,3v3.9L4.6,8.7C4.3,8.8,4.3,9.1,4.4,9.4c0.1,0.1,0.3,0.2,0.4,0.2c0.1,0,0.2,0,0.3-0.1l1.4-0.9V10
	c0,0.3,0.2,0.5,0.5,0.5c0.3,0,0.5-0.2,0.5-0.5v-2L13,4.3l5.5,3.6v3.7l-2.4,0.9v-2c0-0.3-0.2-0.5-0.5-0.5h-5.2
	c-0.3,0-0.5,0.2-0.5,0.5v5.8c0,0.3,0.2,0.5,0.5,0.5H11c0.4,1,1.5,1.4,2.5,1.1l4.9-1.7v2l-5.1,1.8c-0.5,0.2-1,0.2-1.5,0l-4.4-1.6
	v-6.9c0-0.3-0.2-0.5-0.5-0.5c-0.3,0-0.5,0.2-0.5,0.5v3.2c-0.4-0.1-0.8-0.1-1.2,0.1h0c-0.5,0.2-0.9,0.6-1.1,1.1
	c-0.2,0.4-0.2,0.9-0.1,1.4c-1.1-0.2-2.2,0.3-2.7,1.4l0,0C1.1,19.3,1.1,19.9,1.4,20.5z M10.3,4.9l-2,1.3V3.5h2V4.9z M11,15.2
	c0,0.1-0.1,0.2-0.1,0.3v-4.4H15V13l-2.9,1.1C11.6,14.3,11.2,14.7,11,15.2z M19.4,15.9c0.2,0,0.3,0,0.5,0.1c0.3,0.1,0.5,0.3,0.5,0.6
	c0.1,0.5-0.1,1-0.6,1.1l-0.4,0.1V15.9z M5,16.4c0.1-0.2,0.3-0.4,0.5-0.5h0c0.3-0.1,0.6-0.1,0.9,0.1v2.2l-1.2-0.4L5,17.1
	C4.9,16.9,4.9,16.6,5,16.4z"/>
</svg>
