<?xml version="1.0" encoding="utf-8"?>
<!-- Generator: Adobe Illustrator 24.2.0, SVG Export Plug-In . SVG Version: 6.00 Build 0)  -->
<svg version="1.1" id="Calque_1" xmlns="http://www.w3.org/2000/svg" xmlns:xlink="http://www.w3.org/1999/xlink" x="0px" y="0px"
	 viewBox="0 0 257.8 238.9" style="enable-background:new 0 0 257.8 238.9;" xml:space="preserve">
<style type="text/css">
	.st0{fill:#DB191A;}
</style>
<g>
	<path class="st0" d="M1.5,182.9c2.1,4.9,5.8,8.8,10.7,10.8L46,207.9c0.6,0.2,1,0.3,1.6,0.3c1.6,0,3.2-1,3.9-2.6
		c0.9-2.2-0.1-4.6-2.3-5.5l-33.8-14.2c-2.9-1.1-5-3.4-6.2-6.3s-1.1-5.9,0-8.8l0,0c2.4-5.5,8.7-8.3,14.3-6.3l63.4,22.1
		c5.8,2.1,12.2,2.1,17.9,0l55.4-19.3c8-2.9,12.6-11.4,10.4-19.6c-1.3-4.9-4.7-8.8-9.4-10.8c-3.8-1.6-7.9-1.8-11.8-0.5L101.3,153
		c-4.3,1.5-9.2-0.7-11.1-4.9c-1-2.3-1-4.8,0-7.1c0.9-2.3,2.7-3.9,5-4.8l76-29.1c0.5-0.2,0.9-0.3,1.6-0.6c12.4-4.2,26.7-2.3,38,5.3
		l40.4,26.9c1.9,1.3,4.6,0.8,5.8-1.1c1.3-1.9,0.8-4.6-1.1-5.8l-40.4-26.9c-13.6-9-30.6-11.4-45.4-6.3c-0.7,0.2-1.4,0.5-1.8,0.7
		l-14.4,5.5V82.1l11.5,7.6c1.9,1.3,4.6,0.8,5.8-1.1s0.8-4.6-1.1-5.8l-68.6-45.4c-1.4-0.9-3.2-0.9-4.7,0l-12.1,8V34.9
		c0-2.3-1.8-4.2-4.2-4.2H55.4c-2.3,0-4.2,1.8-4.2,4.2v32.6L28.2,82.8c-1.9,1.3-2.5,3.9-1.1,5.8c0.8,1.3,2.2,1.9,3.5,1.9
		c0.8,0,1.6-0.2,2.3-0.7l11.5-7.6v11.6c0,2.3,1.8,4.2,4.2,4.2c2.3,0,4.2-1.8,4.2-4.2V76.6l46.3-30.7l46.3,30.7V108l-20.3,7.8V98.9
		c0-2.3-1.8-4.2-4.2-4.2H77.3c-2.3,0-4.2,1.8-4.2,4.2v48.7c0,2.3,1.8,4.2,4.2,4.2h5.3c3.7,8.1,13,12.1,21.3,9.2l41.5-14.2v16.9
		L102.1,179c-4,1.4-8.4,1.4-12.4,0l-36.8-13.1v-58.1c0-2.3-1.8-4.2-4.2-4.2c-2.3,0-4.2,1.8-4.2,4.2V135c-3.4-0.9-7.1-0.8-10.5,0.6
		h-0.1c-4.1,1.7-7.4,4.9-9.1,9c-1.5,3.7-1.7,7.6-0.6,11.4c-9.1-1.9-18.6,2.7-22.4,11.5l-0.1,0.1C-0.5,172.6-0.5,178,1.5,182.9z
		 M76.4,50.9L59.6,62V39.2h16.8V50.9z M82.5,137.7c-0.3,0.9-0.7,1.8-0.9,2.7V103h35.3v16l-24.7,9.5C87.8,130,84.4,133.3,82.5,137.7z
		 M153.9,144.1c1.4-0.1,2.7,0,4,0.6c2.3,1,3.9,2.9,4.6,5.3c1,4-1.1,8.2-5.1,9.6l-3.4,1.3V144.1z M32.3,147.8
		c0.8-2.1,2.4-3.7,4.5-4.5h0.1c2.5-1,5.3-0.7,7.4,0.7V163l-9.9-3.4l-2.2-5.3C31.5,152.2,31.5,149.9,32.3,147.8z"/>
</g>
</svg>
