<?xml version="1.0" encoding="utf-8"?>
<!-- Generator: Adobe Illustrator 24.2.0, SVG Export Plug-In . SVG Version: 6.00 Build 0)  -->
<svg version="1.1" id="Calque_1" xmlns="http://www.w3.org/2000/svg" xmlns:xlink="http://www.w3.org/1999/xlink" x="0px" y="0px"
	 viewBox="0 0 257.8 238.9" style="enable-background:new 0 0 257.8 238.9;" xml:space="preserve">
<style type="text/css">
	.st0{fill:none;}
	.st1{fill:#DB191A;}
</style>
<g>
	<polygon class="st0" points="81,148.3 76.1,148.3 76.1,141.9 76.1,141.9 	"/>
	<path class="st0" d="M20.5,119.5c0,59.8,48.6,108.4,108.4,108.4s108.4-48.6,108.4-108.4S188.7,11,128.9,11S20.5,59.7,20.5,119.5z
		 M204.8,120.2c-0.8,0.8-1.9,1.2-3,1.2c-1.1,0-2.2-0.4-3-1.2l-53.6-53.6l-29.1,29.1c-1.6,1.6-4.3,1.6-5.9,0c-1.6-1.6-1.6-4.3,0-5.9
		l3.7-3.7V67.4c0-2.3,1.9-4.2,4.2-4.2c2.3,0,4.2,1.9,4.2,4.2v10.2l19.9-19.9c1.6-1.6,4.3-1.6,5.9,0l56.6,56.6
		C206.4,115.9,206.4,118.6,204.8,120.2z M130,163.6c0-1.2,0.5-2.3,1.3-3l15.5-14.7c1.2-1.2,3-1.5,4.6-0.8c1.5,0.7,2.5,2.2,2.5,3.9v5
		c2.4,0.2,4.8,0.3,7.1,0.3c35.8-0.5,37.6-15.8,37.9-16.5c0.8-1.8,2.8-2.8,4.7-2.3c1.9,0.4,3.3,2.1,3.3,4.1c0,29.8-38.1,34.3-53,35
		v3.9c0,1.7-1,3.2-2.5,3.9c-0.5,0.2-1.1,0.3-1.7,0.3c-1.1,0-2.1-0.4-2.9-1.1l-15.5-14.7C130.5,165.8,130,164.7,130,163.6z
		 M116.2,148c5.6-6,8.6-13.8,8.6-22c0-7.7-2.7-15.1-7.7-20.9c-1.4-1.7-1.3-4.1,0.2-5.7l24.9-24.9c0.8-0.8,1.9-1.2,3-1.2
		c1.1,0,2.2,0.4,3,1.2l44.6,44.6c0.6,0.6,1,1.4,1.2,2.2c0.1,0.6,0.2,1.3,0.2,1.9v17.6c-3.2,4.3-11.5,10.1-33.2,10.4l-0.7,0
		c-1,0-2.2,0-3.4-0.1v-2.2c0-2.9-1.7-5.5-4.3-6.6c-0.2-0.1-0.3-0.1-0.5-0.2V129c0-3.9-3-7.1-6.8-7.5c-3.8,0.4-6.8,3.6-6.8,7.5v16
		c0,2.6-1,5-2.7,6.9c-1.9,2.1-4.6,3.3-7.5,3.3h-9c-1.7,0-3.2-1-3.9-2.5C114.7,151.1,115,149.3,116.2,148z M86.1,154.7
		c0-1.6,0.7-2.5,2.5-2.5h7.1v-0.1l-5.4-3.4c-2.6-1.7-3.9-3.4-3.9-5.9c0-3.3,2.2-6.7,8.5-6.7c5.3,0,8.1,3,8.1,5.9
		c0,1.7-0.8,2.9-2.9,2.9c-3.4,0-1.6-4.1-5-4.1c-1.6,0-2.6,1-2.6,2.4c0,1.2,0.5,2,2,3.1l2.8,2c5.5,3.8,5.9,4.8,5.9,6.6
		c0,1.3-1,2.5-2.5,2.5H88.6C86.8,157.2,86.1,156.2,86.1,154.7z M85.9,127.8c-0.1,0-0.1,0-0.2,0c-0.2,0-0.4,0.1-0.6,0.1h0
		c-0.3,0-0.5,0-0.8-0.1c-0.1,0-0.1,0-0.2-0.1c-0.2,0-0.3-0.1-0.5-0.2c-0.1,0-0.2-0.1-0.3-0.1c-0.1-0.1-0.3-0.2-0.4-0.3
		c-0.1-0.1-0.2-0.1-0.2-0.2c-0.1,0-0.1-0.1-0.2-0.1c-0.1-0.1-0.1-0.2-0.2-0.2c0-0.1-0.1-0.1-0.1-0.1l-10.9-14
		c-1.2-1.6-1-3.9,0.6-5.2c1.6-1.2,3.9-1,5.2,0.6l8.3,10.7l3.9-4c1.4-1.5,3.7-1.5,5.2-0.1c1.5,1.4,1.5,3.7,0.1,5.2l-6.8,7
		c-0.1,0.1-0.1,0.1-0.2,0.2c-0.1,0.1-0.1,0.1-0.2,0.2c0,0-0.1,0-0.1,0.1c-0.1,0-0.1,0.1-0.2,0.1c-0.1,0.1-0.2,0.1-0.4,0.2
		c-0.1,0-0.2,0.1-0.2,0.1C86.2,127.7,86.1,127.7,85.9,127.8z M87.1,109.7c-1.7,0-3.1-1.4-3.1-3.1s1.4-3.1,3.1-3.1
		c1.7,0,3.1,1.4,3.1,3.1S88.8,109.7,87.1,109.7z M70.8,124.4c0,1.7-1.4,3.1-3.1,3.1c-1.7,0-3.1-1.4-3.1-3.1s1.4-3.1,3.1-3.1
		C69.4,121.3,70.8,122.7,70.8,124.4z M67.4,150.6c0-1.8,1.1-2.3,2.9-2.3V139c0-1.9,1.2-3.1,3.5-3.1c1.5,0,2.4,0.7,4.1,2.7l6.2,7.5
		c1.3,1.6,1.8,2.6,1.8,3.7c0,1.8-0.8,3.2-2.8,3.2h-7v1.4c0,2-1,3.2-2.9,3.2c-1.9,0-2.9-1.2-2.9-3.2v-1.4
		C68.5,152.9,67.4,152.4,67.4,150.6z M50.9,125.5c0-18.8,15.3-34.2,34.2-34.2c18.8,0,34.2,15.3,34.2,34.2c0,9.1-3.5,17.7-10,24.2
		c-1.6,1.6-4.3,1.6-5.9,0c-1.6-1.6-1.6-4.3,0-5.9c4.9-4.9,7.5-11.3,7.5-18.2c0-14.2-11.5-25.8-25.7-25.8
		c-14.2,0-25.7,11.5-25.7,25.8c0,6.9,2.7,13.3,7.5,18.2c1.6,1.6,1.6,4.3,0,5.9c-0.8,0.8-1.9,1.2-3,1.2c-1.1,0-2.2-0.4-3-1.2
		C54.5,143.2,50.9,134.6,50.9,125.5z M106.7,121.3c1.7,0,3.1,1.4,3.1,3.1c0,1.7-1.4,3.1-3.1,3.1c-1.7,0-3.1-1.4-3.1-3.1
		C103.6,122.7,105,121.3,106.7,121.3z"/>
	<path class="st1" d="M12.1,119.5c0,64.4,52.4,116.8,116.8,116.8s116.8-52.4,116.8-116.8S193.3,2.7,128.9,2.7S12.1,55.1,12.1,119.5z
		 M20.5,119.5C20.5,59.7,69.1,11,128.9,11s108.4,48.6,108.4,108.4s-48.6,108.4-108.4,108.4S20.5,179.2,20.5,119.5z"/>
	<path class="st1" d="M201.8,121.4c-1.1,0-2.2-0.4-3-1.2l-53.6-53.6l-29.1,29.1c-1.6,1.6-4.3,1.6-5.9,0c-1.6-1.6-1.6-4.3,0-5.9
		l3.7-3.7V67.4c0-2.3,1.9-4.2,4.2-4.2c2.3,0,4.2,1.9,4.2,4.2v10.2l19.9-19.9c1.6-1.6,4.3-1.6,5.9,0l56.6,56.6c1.6,1.6,1.6,4.3,0,5.9
		C204,121,202.9,121.4,201.8,121.4z"/>
	<path class="st1" d="M85.1,91.3c18.8,0,34.2,15.3,34.2,34.2c0,9.1-3.5,17.7-10,24.2c-1.6,1.6-4.3,1.6-5.9,0c-1.6-1.6-1.6-4.3,0-5.9
		c4.9-4.9,7.5-11.3,7.5-18.2c0-14.2-11.5-25.8-25.7-25.8c-14.2,0-25.7,11.5-25.7,25.8c0,6.9,2.7,13.3,7.5,18.2
		c1.6,1.6,1.6,4.3,0,5.9c-0.8,0.8-1.9,1.2-3,1.2c-1.1,0-2.2-0.4-3-1.2c-6.4-6.5-10-15-10-24.2C50.9,106.7,66.2,91.3,85.1,91.3z"/>
	<path class="st1" d="M85.1,127.9L85.1,127.9c-0.3,0-0.5,0-0.8-0.1c-0.1,0-0.1,0-0.2-0.1c-0.2,0-0.3-0.1-0.5-0.2
		c-0.1,0-0.2-0.1-0.3-0.1c-0.1-0.1-0.3-0.2-0.4-0.3c-0.1-0.1-0.2-0.1-0.2-0.2c-0.1,0-0.1-0.1-0.2-0.1c-0.1-0.1-0.1-0.2-0.2-0.2
		c0-0.1-0.1-0.1-0.1-0.1l-10.9-14c-1.2-1.6-1-3.9,0.6-5.2c1.6-1.2,3.9-1,5.2,0.6l8.3,10.7l3.9-4c1.4-1.5,3.7-1.5,5.2-0.1
		c1.5,1.4,1.5,3.7,0.1,5.2l-6.8,7c-0.1,0.1-0.1,0.1-0.2,0.2c-0.1,0.1-0.1,0.1-0.2,0.2c0,0-0.1,0-0.1,0.1c-0.1,0-0.1,0.1-0.2,0.1
		c-0.1,0.1-0.2,0.1-0.4,0.2c-0.1,0-0.2,0.1-0.2,0.1c-0.1,0.1-0.3,0.1-0.4,0.1c-0.1,0-0.1,0-0.2,0C85.5,127.8,85.3,127.9,85.1,127.9z
		"/>
	<path class="st1" d="M124.8,126c0-7.7-2.7-15.1-7.7-20.9c-1.4-1.7-1.3-4.1,0.2-5.7l24.9-24.9c0.8-0.8,1.9-1.2,3-1.2
		c1.1,0,2.2,0.4,3,1.2l44.6,44.6c0.6,0.6,1,1.4,1.2,2.2c0.1,0.6,0.2,1.3,0.2,1.9v17.6c-3.2,4.3-11.5,10.1-33.2,10.4l-0.7,0
		c-1,0-2.2,0-3.4-0.1v-2.2c0-2.9-1.7-5.5-4.3-6.6c-0.2-0.1-0.3-0.1-0.5-0.2V129c0-3.9-3-7.1-6.8-7.5c-3.8,0.4-6.8,3.6-6.8,7.5v16
		c0,2.6-1,5-2.7,6.9c-1.9,2.1-4.6,3.3-7.5,3.3h-9c-1.7,0-3.2-1-3.9-2.5c-0.7-1.5-0.4-3.3,0.8-4.5C121.7,142,124.8,134.2,124.8,126z"
		/>
	<path class="st1" d="M146.8,145.8c1.2-1.2,3-1.5,4.6-0.8c1.5,0.7,2.5,2.2,2.5,3.9v5c2.4,0.2,4.8,0.3,7.1,0.3
		c35.8-0.5,37.6-15.8,37.9-16.5c0.8-1.8,2.8-2.8,4.7-2.3c1.9,0.4,3.3,2.1,3.3,4.1c0,29.8-38.1,34.3-53,35v3.9c0,1.7-1,3.2-2.5,3.9
		c-0.5,0.2-1.1,0.3-1.7,0.3c-1.1,0-2.1-0.4-2.9-1.1l-15.5-14.7c-0.8-0.8-1.3-1.9-1.3-3.1c0-1.2,0.5-2.3,1.3-3L146.8,145.8z"/>
	<path class="st1" d="M84,106.6c0-1.7,1.4-3.1,3.1-3.1c1.7,0,3.1,1.4,3.1,3.1s-1.4,3.1-3.1,3.1C85.4,109.7,84,108.3,84,106.6z"/>
	<path class="st1" d="M109.8,124.4c0,1.7-1.4,3.1-3.1,3.1c-1.7,0-3.1-1.4-3.1-3.1c0-1.7,1.4-3.1,3.1-3.1
		C108.4,121.3,109.8,122.7,109.8,124.4z"/>
	<path class="st1" d="M67.7,127.5c-1.7,0-3.1-1.4-3.1-3.1s1.4-3.1,3.1-3.1c1.7,0,3.1,1.4,3.1,3.1S69.4,127.5,67.7,127.5z"/>
</g>
</svg>
